# xmcd
#
# Track frame offsets:
#	150
#	19862
#	39172
#	60487
#	82787
#	104220
#
# Disc length: 1651 seconds
#
# Revision: 1
# Processed by: cddbd v1.5.2PL0 Copyright (c) Steve Scherf et al.
# Submitted via: audiograbber 1.83.01
#
DISCID=3f067106
DTITLE=Beverley Knight - sista sista
DYEAR=1900
DGENRE=
TTITLE0=Sista Sista (Original Mix) - Edit
TTITLE1=Sista Sista (Full Crew Main Mix)
TTITLE2=Sista Sista (Definition of Sound - Dancehall Mix)
TTITLE3=Sista Sista (Linslee Mix)
TTITLE4=Flavour Of The Old Skool
TTITLE5=Made It Back - Rewind (Ragga Mix)
EXTD=
EXTT0=
EXTT1=
EXTT2=
EXTT3=
EXTT4=
EXTT5=
PLAYORDER=
